<svg width="480" height="350" viewBox="0 0 480 350" fill="none" xmlns="http://www.w3.org/2000/svg">
<rect width="480" height="350" fill="#E1404D"/>
<path d="M141.533 230.855L141.51 222.019L137.093 229.326H136.08L131.663 222.218V230.847H129.566V218.113H131.433L136.617 226.681L141.71 218.113H143.599L143.622 230.847H141.533V230.855Z" fill="#741034"/>
<path d="M156.11 218.121H158.292V230.855H156.11V218.121Z" fill="#741034"/>
<path d="M170.773 218.121H176.334C177.763 218.121 179.007 218.381 180.075 218.908C181.142 219.436 181.964 220.177 182.54 221.14C183.116 222.103 183.408 223.219 183.408 224.488C183.408 225.757 183.116 226.873 182.54 227.843C181.964 228.806 181.142 229.548 180.075 230.075C179.007 230.602 177.763 230.862 176.334 230.862H170.773V218.121ZM176.242 229.043C177.809 229.043 179.022 228.638 179.89 227.82C180.758 227.003 181.196 225.894 181.196 224.488C181.196 223.066 180.758 221.95 179.89 221.14C179.022 220.322 177.801 219.917 176.242 219.917H172.955V229.043H176.242Z" fill="#741034"/>
<path d="M194.913 218.121H200.474C201.902 218.121 203.147 218.381 204.214 218.908C205.282 219.436 206.104 220.177 206.68 221.14C207.256 222.103 207.548 223.219 207.548 224.488C207.548 225.757 207.256 226.873 206.68 227.843C206.104 228.806 205.282 229.548 204.214 230.075C203.147 230.602 201.902 230.862 200.474 230.862H194.913V218.121ZM200.389 229.043C201.956 229.043 203.17 228.638 204.038 227.82C204.906 227.003 205.343 225.894 205.343 224.488C205.343 223.066 204.906 221.95 204.038 221.14C203.17 220.322 201.949 219.917 200.389 219.917H197.102V229.043H200.389Z" fill="#741034"/>
<path d="M219.054 218.121H221.235V229.043H228.109V230.862H219.054V218.121Z" fill="#741034"/>
<path d="M248.501 229.043V230.862H238.9V218.129H248.248V219.925H241.082V223.509H247.457V225.283H241.082V229.051H248.501V229.043Z" fill="#741034"/>
<path d="M284.524 229.043V230.862H274.923V218.129H284.27V219.925H277.104V223.509H283.479V225.283H277.104V229.051H284.524V229.043Z" fill="#741034"/>
<path d="M305.015 227.828H298.141L296.789 230.855H294.646L300.507 218.121H302.673L308.556 230.855H306.344L305.015 227.828ZM304.247 226.101L301.59 220.093L298.909 226.101H304.247Z" fill="#741034"/>
<path d="M320.561 230.618C319.624 230.343 318.887 229.968 318.364 229.509L319.217 227.805C319.731 228.225 320.369 228.562 321.145 228.814C321.92 229.066 322.719 229.196 323.541 229.196C324.547 229.196 325.285 229.036 325.761 228.699C326.229 228.371 326.467 227.943 326.467 227.423C326.467 227.018 326.329 226.689 326.053 226.437C325.776 226.185 325.423 225.986 325.008 225.856C324.586 225.718 324.017 225.581 323.295 225.428C322.32 225.222 321.529 225 320.914 224.778C320.307 224.557 319.785 224.197 319.363 223.716C318.933 223.234 318.718 222.569 318.718 221.729C318.718 220.59 319.178 219.68 320.1 218.985C321.022 218.289 322.281 217.945 323.871 217.945C324.685 217.945 325.469 218.037 326.222 218.228C326.982 218.412 327.627 218.687 328.172 219.046L327.381 220.796C326.406 220.124 325.208 219.787 323.802 219.787C322.827 219.787 322.097 219.955 321.621 220.292C321.137 220.628 320.899 221.064 320.899 221.606C320.899 222.012 321.037 222.34 321.314 222.592C321.59 222.845 321.943 223.043 322.374 223.173C322.804 223.311 323.38 223.448 324.102 223.601C325.092 223.823 325.884 224.045 326.475 224.266C327.066 224.48 327.581 224.832 328.011 225.306C328.441 225.787 328.656 226.429 328.656 227.232C328.656 228.394 328.195 229.326 327.274 230.014C326.352 230.702 325.077 231.046 323.457 231.046C322.466 231.038 321.498 230.893 320.561 230.618Z" fill="#741034"/>
<path d="M342.873 219.917H338.503V218.121H349.432V219.917H345.062V230.855H342.881V219.917H342.873Z" fill="#741034"/>
<path d="M152.202 191.036C143.937 191.036 137.002 188.208 131.403 182.545C125.796 176.889 123 169.933 123 161.694C123 153.447 125.819 146.446 131.456 140.667C137.094 134.889 143.976 132 152.087 132H173.354L173.47 146.53H152.087C147.916 146.53 144.421 147.974 141.603 150.871C138.784 153.768 137.37 157.375 137.37 161.694C137.37 165.944 138.799 169.49 141.656 172.349C144.513 175.207 148.07 176.629 152.317 176.629H173.354V191.044H152.202V191.036Z" fill="#741034"/>
<path d="M182.087 153.875C182.625 147.707 184.959 142.555 189.099 138.42C193.232 134.293 198.27 132.229 204.223 132.229H223.055V146.53H204.223C202.133 146.53 200.375 147.248 198.946 148.678C197.517 150.107 196.803 151.865 196.803 153.951V191.044H182.087V153.875Z" fill="#741034"/>
<path d="M257.18 191.036C248.916 191.036 241.98 188.208 236.381 182.545C230.782 176.881 227.979 169.933 227.979 161.686C227.979 153.447 230.797 146.476 236.435 140.774C242.073 135.073 248.985 132.222 257.173 132.222L286.728 132V146.53L272.012 171.21L255.575 171.187L270.107 146.606L257.127 146.537C252.941 146.537 249.431 147.974 246.596 150.848C243.762 153.722 242.349 157.299 242.349 161.587C242.349 165.798 243.778 169.36 246.635 172.272C249.492 175.184 252.971 176.636 257.065 176.636H286.843L286.728 191.052H257.18V191.036Z" fill="#741034"/>
<path d="M347.367 140.606C341.614 134.866 334.487 132 325.992 132H296.675V209.946H311.276V191.151H311.268V175.138H311.276V146.186H325.992C330.47 146.576 334.202 148.211 337.175 151.108C340.147 154.005 341.637 157.536 341.637 161.702C341.637 165.951 340.17 169.536 337.236 172.471C334.302 175.406 330.631 176.659 326.23 176.659L319.187 176.644V191.036L326.23 191.051C334.571 191.051 341.622 188.224 347.375 182.56C353.128 176.896 356.008 169.949 356.008 161.702C356 153.378 353.12 146.346 347.367 140.606Z" fill="#741034"/>
</svg>
