<svg width="480" height="350" viewBox="0 0 480 350" fill="none" xmlns="http://www.w3.org/2000/svg">
<rect width="480" height="350" fill="#FD6E09"/>
<g filter="url(#filter0_d_1302_3893)">
<path d="M131.714 243.572H134.751V244.149L133.735 244.288L135.618 249.704L136.041 251.113L136.417 249.681L138.118 244.288L137.216 244.149V243.572H139.762V244.149L139.031 244.288L136.326 252.244H135.333L132.411 244.288L131.714 244.149V243.572Z" fill="white"/>
<path d="M143.813 244.288L142.877 244.149V243.572H148.687L148.847 245.362H148.196L147.865 244.242L145.035 244.173V247.429L146.941 247.394L147.101 246.436H147.728V249.092H147.101L146.941 248.099L145.035 248.064V251.505L148.253 251.39L148.858 249.935L149.532 250.143L149.201 252.152H142.866V251.586L143.813 251.471V244.288Z" fill="white"/>
<path d="M157.024 252.279C156.202 252.279 155.49 252.094 154.889 251.725C154.296 251.355 153.843 250.847 153.531 250.2C153.219 249.546 153.063 248.807 153.063 247.983C153.063 247.036 153.246 246.224 153.611 245.547C153.984 244.869 154.497 244.357 155.152 244.011C155.806 243.657 156.552 243.479 157.389 243.479C158.158 243.479 159.044 243.599 160.049 243.837L159.946 245.835H159.136L158.862 244.45C158.755 244.365 158.572 244.284 158.314 244.207C158.063 244.13 157.724 244.092 157.298 244.092C156.742 244.092 156.251 244.23 155.825 244.507C155.399 244.784 155.064 245.196 154.821 245.743C154.585 246.29 154.467 246.952 154.467 247.729C154.467 248.445 154.562 249.1 154.752 249.692C154.95 250.285 155.247 250.762 155.643 251.124C156.046 251.478 156.537 251.655 157.115 251.655C157.48 251.655 157.827 251.613 158.154 251.528C158.481 251.436 158.732 251.317 158.907 251.17V248.595L157.469 248.48V247.798H160.802V248.48L160.14 248.584V251.69C159.973 251.698 159.695 251.763 159.307 251.886C158.911 252.01 158.538 252.106 158.188 252.175C157.838 252.244 157.45 252.279 157.024 252.279Z" fill="white"/>
<path d="M165.291 244.288L164.355 244.149V243.572H170.165L170.325 245.362H169.674L169.343 244.242L166.512 244.173V247.429L168.418 247.394L168.578 246.436H169.206V249.092H168.578L168.418 248.099L166.512 248.064V251.505L169.731 251.39L170.336 249.935L171.009 250.143L170.678 252.152H164.343V251.586L165.291 251.471V244.288Z" fill="white"/>
<path d="M177.36 244.184L175.397 244.253L174.998 246.667H174.244L174.438 243.572H181.55L181.686 246.667H180.967L180.591 244.253L178.616 244.184V251.471L180.237 251.586V252.152H175.876V251.586L177.36 251.471V244.184Z" fill="white"/>
<path d="M188.06 243.503H189.316L192.09 251.471L192.797 251.586V252.152H189.784V251.586L190.731 251.471L190.195 249.762H186.862L186.325 251.471L187.307 251.586V252.152H184.602V251.586L185.309 251.471L188.06 243.503ZM188.779 245.35L188.494 244.334L188.22 245.373L187.067 249.08H189.978L188.779 245.35Z" fill="white"/>
<path d="M195.975 251.586L196.923 251.471V244.288L196.032 244.138V243.572H197.527C197.741 243.572 198.03 243.557 198.395 243.526C198.775 243.495 199.072 243.479 199.285 243.479C200.404 243.479 201.199 243.664 201.671 244.034C202.15 244.396 202.39 244.969 202.39 245.754C202.39 246.301 202.238 246.802 201.934 247.256C201.637 247.71 201.226 248.018 200.701 248.179C200.944 248.31 201.169 248.537 201.374 248.861C201.587 249.176 201.846 249.619 202.15 250.189C202.386 250.62 202.565 250.936 202.687 251.136C202.816 251.336 202.938 251.448 203.052 251.471L203.497 251.586V252.152H201.922C201.8 252.152 201.663 252.021 201.511 251.759C201.359 251.49 201.157 251.078 200.906 250.524C200.632 249.916 200.393 249.434 200.187 249.08C199.989 248.719 199.791 248.488 199.594 248.387C198.779 248.387 198.296 248.384 198.144 248.376V251.471L199.274 251.586V252.152H195.975V251.586ZM199.502 247.764C199.989 247.764 200.373 247.602 200.655 247.279C200.937 246.955 201.077 246.474 201.077 245.835C201.077 245.273 200.933 244.846 200.644 244.553C200.362 244.253 199.871 244.103 199.171 244.103C198.928 244.103 198.684 244.119 198.441 244.149C198.288 244.165 198.19 244.172 198.144 244.172V247.752C198.258 247.76 198.494 247.764 198.852 247.764H199.502Z" fill="white"/>
<path d="M207.961 244.288L206.9 244.149V243.572H210.256V244.149L209.194 244.288V251.471L210.256 251.598V252.152H206.911V251.586L207.961 251.471V244.288Z" fill="white"/>
<path d="M216.994 243.503H218.249L221.023 251.471L221.731 251.586V252.152H218.717V251.586L219.665 251.471L219.128 249.762H215.795L215.259 251.471L216.24 251.586V252.152H213.535V251.586L214.243 251.471L216.994 243.503ZM217.713 245.35L217.428 244.334L217.154 245.373L216.001 249.08H218.911L217.713 245.35Z" fill="white"/>
<path d="M225.868 244.288L224.955 244.149V243.572H227.078L230.879 249.207L231.518 250.431V244.288L230.525 244.149V243.572H233.219V244.149L232.306 244.288V252.152H231.404L227.523 246.39L226.644 244.865V251.471L227.728 251.586V252.152H224.955V251.586L225.868 251.459V244.288Z" fill="white"/>
<path d="M242.329 251.586L243.277 251.471V244.288L242.386 244.138V243.572H243.881C244.095 243.572 244.384 243.557 244.749 243.526C245.129 243.495 245.426 243.479 245.639 243.479C246.758 243.479 247.553 243.664 248.025 244.034C248.504 244.396 248.744 244.969 248.744 245.754C248.744 246.301 248.592 246.802 248.288 247.256C247.991 247.71 247.58 248.018 247.055 248.179C247.298 248.31 247.523 248.537 247.728 248.861C247.941 249.176 248.2 249.619 248.504 250.189C248.74 250.62 248.919 250.936 249.041 251.136C249.17 251.336 249.292 251.448 249.406 251.471L249.851 251.586V252.152H248.276C248.154 252.152 248.017 252.021 247.865 251.759C247.713 251.49 247.511 251.078 247.26 250.524C246.986 249.916 246.747 249.434 246.541 249.08C246.343 248.719 246.145 248.488 245.948 248.387C245.133 248.387 244.65 248.384 244.498 248.376V251.471L245.628 251.586V252.152H242.329V251.586ZM245.856 247.764C246.343 247.764 246.727 247.602 247.009 247.279C247.291 246.955 247.431 246.474 247.431 245.835C247.431 245.273 247.287 244.846 246.998 244.553C246.716 244.253 246.225 244.103 245.525 244.103C245.282 244.103 245.038 244.119 244.795 244.149C244.642 244.165 244.544 244.172 244.498 244.172V247.752C244.612 247.76 244.848 247.764 245.206 247.764H245.856Z" fill="white"/>
<path d="M254.11 244.288L253.174 244.149V243.572H258.984L259.144 245.362H258.493L258.162 244.242L255.331 244.173V247.429L257.238 247.394L257.397 246.436H258.025V249.092H257.397L257.238 248.099L255.331 248.064V251.505L258.55 251.39L259.155 249.935L259.829 250.143L259.498 252.152H253.163V251.586L254.11 251.471V244.288Z" fill="white"/>
<path d="M266.18 252.279C265.784 252.279 265.43 252.244 265.118 252.175C264.806 252.106 264.464 252.013 264.091 251.898C263.863 251.813 263.691 251.767 263.577 251.759L263.668 249.669H264.399L264.593 251.17C264.722 251.294 264.932 251.405 265.221 251.505C265.518 251.598 265.841 251.644 266.191 251.644C266.769 251.644 267.207 251.513 267.504 251.251C267.808 250.99 267.96 250.628 267.96 250.166C267.96 249.865 267.877 249.608 267.709 249.392C267.549 249.177 267.333 248.992 267.059 248.838C266.792 248.684 266.423 248.503 265.951 248.295C265.525 248.103 265.152 247.906 264.833 247.706C264.521 247.506 264.247 247.24 264.011 246.909C263.783 246.571 263.668 246.166 263.668 245.697C263.668 245.273 263.779 244.896 263.999 244.565C264.228 244.226 264.551 243.961 264.97 243.768C265.396 243.576 265.89 243.479 266.454 243.479C266.804 243.479 267.112 243.506 267.378 243.56C267.652 243.614 267.96 243.687 268.303 243.78C268.455 243.834 268.584 243.868 268.691 243.884L268.622 245.824H267.926L267.698 244.403C267.622 244.326 267.462 244.253 267.218 244.184C266.983 244.115 266.724 244.08 266.442 244.08C265.917 244.08 265.518 244.192 265.244 244.415C264.977 244.638 264.844 244.962 264.844 245.385C264.844 245.693 264.924 245.951 265.084 246.159C265.251 246.366 265.457 246.544 265.7 246.69C265.944 246.836 266.332 247.036 266.865 247.29C267.359 247.529 267.762 247.745 268.075 247.937C268.387 248.13 268.653 248.384 268.874 248.699C269.102 249.007 269.216 249.377 269.216 249.808C269.216 250.216 269.102 250.608 268.874 250.986C268.653 251.363 268.31 251.675 267.846 251.921C267.39 252.16 266.834 252.279 266.18 252.279Z" fill="white"/>
<path d="M275.753 244.184L273.79 244.253L273.391 246.667H272.637L272.831 243.572H279.943L280.08 246.667H279.36L278.984 244.253L277.009 244.184V251.471L278.63 251.586V252.152H274.269V251.586L275.753 251.471V244.184Z" fill="white"/>
<path d="M286.453 243.503H287.709L290.483 251.471L291.19 251.586V252.152H288.177V251.586L289.124 251.471L288.588 249.762H285.255L284.718 251.471L285.7 251.586V252.152H282.995V251.586L283.702 251.471L286.453 243.503ZM287.172 245.35L286.887 244.334L286.613 245.373L285.46 249.08H288.371L287.172 245.35Z" fill="white"/>
<path d="M298.192 252.244C297.073 252.244 296.248 251.944 295.715 251.344C295.19 250.736 294.927 249.796 294.927 248.526V244.288L294.117 244.149V243.572H297.165V244.149L296.194 244.3V248.653C296.194 249.7 296.377 250.455 296.742 250.916C297.115 251.378 297.648 251.609 298.34 251.609C299.033 251.609 299.55 251.363 299.893 250.87C300.243 250.378 300.418 249.662 300.418 248.722V244.3L299.459 244.149V243.572H302.119V244.149L301.285 244.288V248.665C301.285 249.866 301.004 250.763 300.441 251.355C299.877 251.948 299.128 252.244 298.192 252.244Z" fill="white"/>
<path d="M305.614 251.586L306.562 251.471V244.288L305.671 244.138V243.572H307.167C307.38 243.572 307.668 243.557 308.034 243.526C308.415 243.495 308.711 243.479 308.924 243.479C310.043 243.479 310.838 243.664 311.311 244.034C311.79 244.396 312.029 244.969 312.029 245.754C312.029 246.301 311.878 246.802 311.572 247.256C311.275 247.71 310.864 248.018 310.339 248.179C310.583 248.31 310.808 248.537 311.014 248.861C311.226 249.176 311.484 249.619 311.79 250.189C312.025 250.62 312.204 250.936 312.326 251.136C312.455 251.336 312.577 251.448 312.691 251.471L313.137 251.586V252.152H311.562C311.439 252.152 311.302 252.021 311.151 251.759C310.998 251.49 310.796 251.078 310.545 250.524C310.271 249.916 310.032 249.434 309.827 249.08C309.628 248.719 309.43 248.488 309.233 248.387C308.418 248.387 307.935 248.384 307.783 248.376V251.471L308.913 251.586V252.152H305.614V251.586ZM309.142 247.764C309.628 247.764 310.013 247.602 310.294 247.279C310.576 246.955 310.717 246.474 310.717 245.835C310.717 245.273 310.571 244.846 310.283 244.553C310 244.253 309.511 244.103 308.81 244.103C308.567 244.103 308.323 244.119 308.079 244.149C307.928 244.165 307.828 244.172 307.783 244.172V247.752C307.897 247.76 308.134 247.764 308.49 247.764H309.142Z" fill="white"/>
<path d="M319.232 243.503H320.488L323.262 251.471L323.97 251.586V252.152H320.957V251.586L321.903 251.471L321.368 249.762H318.035L317.497 251.471L318.479 251.586V252.152H315.774V251.586L316.482 251.471L319.232 243.503ZM319.952 245.35L319.666 244.334L319.392 245.373L318.24 249.08H321.15L319.952 245.35Z" fill="white"/>
<path d="M328.106 244.288L327.192 244.149V243.572H329.316L333.117 249.207L333.757 250.431V244.288L332.763 244.149V243.572H335.457V244.149L334.543 244.288V252.152H333.643L329.762 246.39L328.882 244.865V251.471L329.967 251.586V252.152H327.192V251.586L328.106 251.459V244.288Z" fill="white"/>
<path d="M341.847 244.184L339.884 244.253L339.485 246.667H338.732L338.925 243.572H346.037L346.174 246.667H345.454L345.078 244.253L343.103 244.184V251.471L344.724 251.586V252.152H340.363V251.586L341.847 251.471V244.184Z" fill="white"/>
</g>
<g filter="url(#filter1_d_1302_3893)">
<path d="M293.981 144.546C295.08 145.969 296.348 147.235 297.757 148.359C298.645 149.526 299.687 150.565 300.561 151.745C301.463 152.955 302.308 154.207 303.182 155.431C304.238 157.252 305.267 159.087 306.042 161.065C307.324 164.267 308.141 167.582 308.578 170.997C308.719 172.078 308.424 173.145 308.536 174.212C308.62 175.977 308.281 177.698 307.972 179.434C307.958 180.459 307.718 181.455 307.38 182.408C307.141 184.073 306.69 185.652 305.816 187.103C305.309 188.498 304.309 189.622 303.661 190.931C302.674 192.567 301.463 194.047 300.42 195.655C298.856 197.547 297.518 199.639 295.785 201.417C295.559 201.602 295.306 201.702 295.024 201.73C293.249 202.1 291.459 202.015 289.656 202.057C288.74 201.645 287.698 202.228 286.796 201.702C285.88 200.876 286.542 200.222 287.021 199.539C287.557 198.756 288.614 198.486 288.938 197.504C290.994 194.986 293.404 192.752 295.235 190.034C296.067 188.91 296.912 187.772 297.602 186.548C298.462 184.898 299.293 183.247 299.702 181.412C299.899 180.387 300.195 179.377 300.476 178.381C300.73 176.062 301.026 173.728 301.096 171.395C300.899 169.36 300.293 167.425 299.828 165.447C299.533 164.067 298.476 163.043 298.124 161.691C297.814 160.638 296.912 159.913 296.532 158.888C295.743 157.75 294.869 156.697 294.094 155.544C292.784 153.865 291.107 152.571 289.543 151.176C288.148 149.611 286.5 148.302 285.063 146.765C283.781 145.428 282.189 144.418 281.019 142.952C279.765 141.43 278.032 140.476 276.652 139.096C276.215 138.669 275.694 138.328 275.285 137.858C274.144 136.464 272.622 135.553 271.256 134.429C269.015 132.537 266.747 130.673 264.634 128.624C263.718 128.069 263.14 127.116 262.253 126.532C261.14 125.721 260.196 124.683 259.097 123.843C257.336 122.25 255.49 120.77 253.785 119.119C253.179 118.806 252.982 118.038 252.32 117.768C251.263 117.369 250.869 116.231 249.995 115.633C248.375 114.637 247.065 113.257 245.712 111.962C245.36 111.621 245.092 111.194 244.585 111.038C243.373 110.54 243.035 109.06 241.824 108.576C240.711 108.021 240.161 106.442 238.935 106.385C237.681 106.328 237.118 107.936 236.019 108.505C234.906 109.088 234.046 109.985 233.286 110.981C232.327 111.735 231.482 112.631 230.468 113.328C229.425 113.969 228.735 115.036 227.72 115.733C225.001 118.095 222.31 120.5 219.563 122.819C218.027 123.943 216.801 125.437 215.209 126.504C214.279 127.756 212.899 128.496 211.828 129.577C211.208 130.474 210.151 130.872 209.447 131.697C208.348 133.248 206.488 133.96 205.361 135.482C202.881 137.616 200.5 139.836 198.02 141.97C195.329 144.475 192.498 146.794 189.947 149.426C187.961 151.276 185.777 152.941 184.185 155.203C182.832 156.17 182.297 157.778 181.353 159.059C180.93 159.642 180.592 160.297 180.184 160.894C179.775 161.933 179.183 162.9 178.803 163.953C178.141 165.974 177.309 167.937 176.845 170.029C176.605 172.135 176.154 174.241 176.718 176.361C177.056 177.599 177.352 178.837 177.62 180.089C177.958 180.914 178.437 181.696 178.577 182.607C179.606 184.457 180.296 186.491 181.508 188.256C181.917 189.01 182.438 189.707 182.875 190.447C183.565 191.713 184.749 192.624 185.397 193.933C186.256 195.541 187.919 196.451 188.877 197.974C189.116 198.344 189.482 198.628 189.68 199.041C190.553 200.791 189.595 201.872 187.271 201.773C185.974 201.744 184.678 201.787 183.396 201.773C182.325 201.929 181.607 201.332 180.916 200.634C180.085 199.795 179.268 198.941 178.493 198.059C177.69 196.266 175.872 195.185 175.154 193.335C173.844 191.628 172.843 189.735 171.998 187.758C171.096 185.937 170.307 184.087 170.054 182.038C169.856 181.028 169.49 180.032 169.631 178.964C169.42 176.802 168.87 174.668 169.363 172.476C169.391 171.993 169.434 171.523 169.546 171.053C169.279 169.147 170.364 167.44 170.279 165.561C170.49 164.053 171.181 162.716 171.786 161.335C171.998 160.154 172.717 159.201 173.139 158.106C174.9 154.477 176.943 151.034 179.944 148.259C180.24 147.989 180.437 147.662 180.62 147.306C183.044 145.158 185.397 142.924 187.721 140.676C189.187 139.082 191.131 138.029 192.483 136.322C194.16 134.586 196.245 133.319 197.88 131.541C200.655 129.008 203.501 126.547 206.305 124.042C207.728 123.089 208.799 121.752 210.081 120.642C211.081 120.215 211.898 119.575 212.42 118.579C213.18 117.597 214.406 117.184 215.209 116.26C215.871 115.178 216.984 114.609 217.928 113.841C218.619 113.001 219.323 112.176 220.324 111.692C222.451 109.33 225.015 107.466 227.284 105.275C228.227 104.749 228.918 103.881 229.777 103.255C231.355 101.633 233.13 100.281 234.849 98.8296C235.892 97.9759 236.723 96.8518 238.019 96.3254C239.034 95.8131 239.851 96.2258 240.612 96.8945C242.274 98.3316 243.895 99.7971 245.599 101.177C248.206 103.596 250.841 106.001 253.433 108.448C253.87 108.861 254.391 109.202 254.771 109.7C255.617 110.369 256.561 110.924 257.181 111.863C259.463 113.499 261.506 115.42 263.591 117.284C265.86 119.191 268.015 121.211 270.34 123.046C271.566 124.341 272.989 125.423 274.327 126.604C277.145 129.321 280.146 131.854 283.006 134.529C286.077 137.403 289.276 140.135 292.291 143.08C292.868 143.55 293.305 144.19 293.981 144.546Z" fill="white"/>
<path d="M297.968 200.549C301.434 197.021 303.815 193.321 306.281 189.693C308.508 186.42 309.619 182.707 310.225 178.808C311.353 171.438 309.184 164.665 306.394 158.049C305.224 155.26 303.195 152.955 301.209 150.707C298.433 147.591 295.587 144.517 292.572 141.643C287.092 136.421 281.4 131.413 275.905 126.191C272.101 122.563 268.085 119.148 264.169 115.648C258.646 110.739 253.095 105.887 247.614 100.936C244.796 98.3886 241.922 95.9271 238.963 93.5509C238.217 92.9533 237.794 92.9818 237.132 93.6221C233.849 96.7666 230.566 99.9395 227.185 102.984C221.944 107.694 216.604 112.276 211.349 116.971C207.375 120.528 203.515 124.199 199.584 127.799C194.287 132.622 189.017 137.489 183.621 142.198C176.422 148.487 171.251 156.213 167.827 165.092C166.531 168.464 166.433 172.106 166.813 175.834C167.306 180.672 168.898 185.054 171.012 189.28C172.73 192.709 174.787 195.968 177.295 198.899C177.662 199.326 178.155 199.824 177.929 200.336C177.718 200.805 177.013 200.464 176.549 200.564C173.773 201.09 172.125 199.88 170.687 197.462C167.658 192.354 164.46 187.445 163.122 181.469C161.417 173.885 162.248 166.728 165.235 159.699C167.982 153.239 171.815 147.477 176.858 142.668C182.494 137.304 188.2 131.982 194.089 126.888C196.64 124.697 199.049 122.349 201.543 120.087C207.178 114.951 212.828 109.843 218.45 104.706C221.098 102.287 223.733 99.8399 226.368 97.4069C230.003 94.0632 233.652 90.7479 237.273 87.4042C237.921 86.8066 238.498 86.7497 239.175 87.3615C241.725 89.6239 244.317 91.8435 246.853 94.1059C251.911 98.6163 256.997 103.084 261.957 107.694C264.338 109.914 266.775 112.048 269.198 114.239C273.975 118.55 278.793 122.805 283.583 127.102C284.922 128.297 286.218 129.549 287.514 130.787C292.009 135.041 296.799 138.997 300.941 143.621C306.718 150.081 311.846 156.967 313.79 165.732C315.114 171.708 314.946 177.599 313.34 183.518C311.762 189.323 308.494 194.203 305.365 199.169C304.759 200.137 303.886 200.777 302.562 200.62C301.209 200.435 299.856 200.549 297.968 200.549Z" fill="#FE6D0B"/>
<path d="M298.701 174.895C298.997 181.753 296.236 187.16 291.868 192.026C289.431 194.744 286.824 197.234 284.035 199.553C283.344 200.137 282.851 200.236 281.963 199.98C281.02 199.71 279.949 199.909 278.948 199.838C278.596 199.809 278.272 199.553 277.934 199.397C278.131 199.141 278.286 198.813 278.54 198.628C284.161 194.516 288.332 189.053 292.136 183.333C293.601 181.127 294.193 178.353 294.362 175.593C294.531 172.932 294.517 170.328 293.7 167.724C292.925 165.248 291.755 163.029 290.163 161.022C286.514 156.427 281.921 152.855 277.441 149.17C273.228 145.713 269.128 142.113 264.93 138.627C260.238 134.728 255.42 130.958 250.77 127.002C247.051 123.843 243.063 121.04 239.217 118.067C238.513 117.526 238.146 117.597 237.512 118.124C232.525 122.293 227.509 126.419 222.507 130.573C216.942 135.184 211.349 139.765 205.897 144.517C201.205 148.615 196.203 152.357 191.681 156.64C187.595 160.51 184.495 165.134 183.551 170.84C183.129 173.415 183.438 176.076 184.27 178.652C185.974 183.959 188.44 188.768 192.441 192.752C194.808 195.114 197.119 197.504 199.782 199.525C200.049 199.724 200.416 199.881 200.303 200.279C200.162 200.72 199.739 200.521 199.429 200.535C198.021 200.563 196.612 200.521 195.203 200.549C194.484 200.563 193.893 200.279 193.413 199.809C188.637 195.171 184.072 190.404 181.226 184.172C179.254 179.847 178.648 175.45 179.451 170.826C179.775 168.976 180.17 167.127 180.663 165.32C182.424 158.959 186.608 154.363 191.497 150.252C193.47 148.601 195.358 146.851 197.274 145.143C202.29 140.661 207.404 136.308 212.73 132.181C216.196 129.492 219.464 126.533 222.86 123.758C226.819 120.542 230.806 117.355 234.821 114.211C236.033 113.257 237.09 111.664 238.555 111.607C240.063 111.536 241.021 113.286 242.246 114.196C247.417 118.095 252.686 121.837 257.632 126.049C263.521 131.071 269.41 136.08 275.271 141.145C279.174 144.532 283.344 147.619 287.106 151.162C292.516 156.242 296.799 162.132 298.293 169.659C298.631 171.424 298.955 173.216 298.701 174.895Z" fill="#229832"/>
</g>
<g filter="url(#filter2_d_1302_3893)">
<path d="M144.72 236.163C142.95 236.163 141.362 236.022 139.953 235.739C138.544 235.457 136.971 235.081 135.235 234.611C134.088 234.297 133.318 234.125 132.925 234.093L133.368 225.392H137.348L138.429 231.459C138.855 231.898 139.609 232.29 140.69 232.635C141.804 232.98 143.065 233.153 144.474 233.153C146.669 233.153 148.307 232.698 149.388 231.789C150.502 230.848 151.059 229.547 151.059 227.885C151.059 226.787 150.732 225.847 150.076 225.063C149.421 224.247 148.52 223.526 147.373 222.899C146.227 222.241 144.654 221.488 142.656 220.642C139.936 219.45 137.676 218.039 135.874 216.409C134.105 214.747 133.22 212.505 133.22 209.683C133.22 207.927 133.695 206.343 134.645 204.932C135.595 203.49 137.004 202.361 138.872 201.546C140.772 200.699 143.082 200.276 145.801 200.276C147.406 200.276 148.815 200.386 150.027 200.605C151.272 200.825 152.615 201.123 154.057 201.499C154.909 201.718 155.548 201.859 155.973 201.922L155.679 210.153H151.747L150.715 204.368C150.42 204.086 149.83 203.819 148.946 203.568C148.061 203.286 147.079 203.145 145.997 203.145C144.032 203.145 142.541 203.584 141.525 204.462C140.542 205.309 140.051 206.453 140.051 207.895C140.051 209.056 140.411 210.059 141.132 210.906C141.886 211.752 142.787 212.473 143.835 213.069C144.883 213.634 146.538 214.449 148.799 215.515C150.633 216.362 152.206 217.192 153.516 218.008C154.827 218.823 155.957 219.889 156.907 221.206C157.857 222.492 158.332 224.012 158.332 225.768C158.332 227.493 157.874 229.139 156.956 230.707C156.072 232.275 154.597 233.576 152.533 234.611C150.502 235.645 147.898 236.163 144.72 236.163Z" fill="white"/>
<path d="M166.067 209.542H178.746V212.223L175.306 212.787L178.942 225.298L180.122 230.425L181.203 225.251L185.626 209.542H191.572L196.437 225.251L197.617 230.425L198.796 225.298L202.236 212.834L198.649 212.223V209.542H209.166V212.223L206.659 212.74L199.19 236.022H193.538L188.574 220.783L187.444 215.186L186.56 220.783L181.989 236.022H176.289L168.426 212.74L166.067 212.223V209.542Z" fill="white"/>
<path d="M216.719 228.308C216.719 225.455 218.209 223.307 221.191 221.864C224.205 220.422 228.087 219.685 232.838 219.654V218.572C232.838 217.287 232.69 216.283 232.395 215.562C232.133 214.841 231.625 214.308 230.872 213.963C230.151 213.586 229.086 213.398 227.678 213.398C226.072 213.398 224.631 213.602 223.353 214.01C222.075 214.386 220.748 214.888 219.372 215.515L217.849 212.505C218.34 212.097 219.16 211.611 220.306 211.047C221.486 210.482 222.878 209.996 224.483 209.589C226.089 209.15 227.743 208.93 229.447 208.93C231.969 208.93 233.935 209.244 235.344 209.871C236.785 210.498 237.817 211.501 238.44 212.881C239.062 214.261 239.374 216.111 239.374 218.431V232.823H242.027V235.457C241.372 235.614 240.438 235.771 239.226 235.927C238.014 236.084 236.949 236.163 236.032 236.163C234.918 236.163 234.165 236.006 233.771 235.692C233.411 235.379 233.231 234.736 233.231 233.764V232.494C232.346 233.435 231.2 234.281 229.791 235.034C228.382 235.786 226.793 236.163 225.024 236.163C223.517 236.163 222.124 235.865 220.847 235.269C219.602 234.642 218.603 233.748 217.849 232.588C217.095 231.397 216.719 229.97 216.719 228.308ZM228.169 232.259C228.857 232.259 229.643 232.071 230.528 231.695C231.413 231.287 232.182 230.801 232.838 230.237V222.523C229.889 222.523 227.678 223.009 226.203 223.981C224.762 224.922 224.041 226.144 224.041 227.65C224.041 229.155 224.401 230.299 225.122 231.083C225.876 231.867 226.891 232.259 228.169 232.259Z" fill="white"/>
<path d="M262.386 236.163C260.355 236.163 258.536 235.708 256.931 234.799C255.326 233.858 254.048 232.416 253.098 230.472C252.148 228.528 251.673 226.097 251.673 223.181C251.673 220.548 252.23 218.149 253.344 215.985C254.49 213.79 256.161 212.05 258.356 210.765C260.551 209.479 263.189 208.836 266.268 208.836C267.513 208.836 268.693 208.961 269.807 209.212V201.264L264.991 200.605V198.018L275.114 197.078H275.261L276.638 198.065V232.776H279.291V235.457C276.932 235.928 274.983 236.163 273.443 236.163C272.395 236.163 271.641 235.99 271.183 235.645C270.757 235.332 270.544 234.689 270.544 233.717V232.4C269.692 233.497 268.529 234.407 267.055 235.128C265.58 235.818 264.024 236.163 262.386 236.163ZM264.941 232.259C266.023 232.259 266.973 232.055 267.792 231.648C268.644 231.209 269.315 230.691 269.807 230.095V212.975C269.577 212.662 269.086 212.395 268.332 212.176C267.612 211.956 266.825 211.846 265.973 211.846C263.877 211.846 262.189 212.724 260.912 214.48C259.667 216.205 259.044 218.98 259.044 222.805C259.044 226.003 259.585 228.386 260.666 229.954C261.747 231.491 263.172 232.259 264.941 232.259Z" fill="white"/>
<path d="M302.282 236.163C297.957 236.163 294.73 234.955 292.601 232.541C290.504 230.095 289.456 226.772 289.456 222.57C289.456 219.748 289.996 217.302 291.077 215.233C292.191 213.163 293.747 211.58 295.746 210.482C297.744 209.385 300.054 208.836 302.675 208.836C305.951 208.836 308.474 209.667 310.243 211.329C312.013 212.959 312.93 215.295 312.995 218.337C312.995 220.406 312.865 221.943 312.601 222.946H296.63C296.761 225.8 297.466 228.026 298.744 229.625C300.021 231.193 301.84 231.977 304.199 231.977C305.476 231.977 306.787 231.773 308.13 231.365C309.505 230.958 310.587 230.471 311.374 229.907L312.601 232.494C311.718 233.403 310.276 234.25 308.278 235.034C306.312 235.786 304.313 236.163 302.282 236.163ZM306.115 220.124C306.181 219.246 306.213 218.572 306.213 218.102C306.213 213.931 304.756 211.846 301.84 211.846C300.234 211.846 298.989 212.458 298.105 213.681C297.22 214.903 296.729 217.051 296.63 220.124H306.115Z" fill="white"/>
<path d="M329.393 231.789C329.655 232.165 330.245 232.525 331.161 232.87C332.111 233.184 333.061 233.341 334.011 233.341C335.552 233.341 336.698 233.043 337.452 232.447C338.238 231.82 338.632 231.005 338.632 230.001C338.632 228.967 338.156 228.136 337.206 227.509C336.256 226.85 334.651 226.051 332.391 225.11L331.014 224.545C328.754 223.636 327.066 222.539 325.953 221.253C324.838 219.967 324.281 218.306 324.281 216.267C324.281 214.856 324.724 213.602 325.609 212.505C326.492 211.376 327.737 210.498 329.344 209.871C330.949 209.244 332.8 208.93 334.897 208.93C336.437 208.93 337.747 209.024 338.828 209.212C339.942 209.4 341.104 209.651 342.316 209.965C342.973 210.184 343.463 210.31 343.791 210.341V216.503H339.908L338.779 212.928C338.583 212.614 338.14 212.332 337.452 212.081C336.763 211.831 335.977 211.705 335.093 211.705C333.75 211.705 332.668 211.987 331.85 212.552C331.063 213.085 330.67 213.837 330.67 214.809C330.67 215.687 330.949 216.424 331.506 217.02C332.062 217.584 332.668 218.023 333.323 218.337C333.978 218.65 335.192 219.168 336.96 219.889C338.73 220.61 340.188 221.3 341.334 221.958C342.513 222.617 343.48 223.479 344.234 224.545C345.02 225.58 345.412 226.85 345.412 228.355C345.412 230.676 344.462 232.557 342.562 233.999C340.662 235.442 337.928 236.163 334.356 236.163C332.686 236.163 331.177 236.022 329.834 235.739C328.524 235.457 327.001 235.081 325.264 234.611L324.183 234.281V228.073H328.262L329.393 231.789Z" fill="white"/>
</g>
<defs>
<filter id="filter0_d_1302_3893" x="130.714" y="242.479" width="218.46" height="12.7996" filterUnits="userSpaceOnUse" color-interpolation-filters="sRGB">
<feFlood flood-opacity="0" result="BackgroundImageFix"/>
<feColorMatrix in="SourceAlpha" type="matrix" values="0 0 0 0 0 0 0 0 0 0 0 0 0 0 0 0 0 0 127 0" result="hardAlpha"/>
<feOffset dx="1" dy="1"/>
<feGaussianBlur stdDeviation="1"/>
<feComposite in2="hardAlpha" operator="out"/>
<feColorMatrix type="matrix" values="0 0 0 0 0 0 0 0 0 0 0 0 0 0 0 0 0 0 0.25 0"/>
<feBlend mode="normal" in2="BackgroundImageFix" result="effect1_dropShadow_1302_3893"/>
<feBlend mode="normal" in="SourceGraphic" in2="effect1_dropShadow_1302_3893" result="shape"/>
</filter>
<filter id="filter1_d_1302_3893" x="159.247" y="83.9286" width="164.429" height="127.129" filterUnits="userSpaceOnUse" color-interpolation-filters="sRGB">
<feFlood flood-opacity="0" result="BackgroundImageFix"/>
<feColorMatrix in="SourceAlpha" type="matrix" values="0 0 0 0 0 0 0 0 0 0 0 0 0 0 0 0 0 0 127 0" result="hardAlpha"/>
<feOffset dx="3" dy="3"/>
<feGaussianBlur stdDeviation="3"/>
<feComposite in2="hardAlpha" operator="out"/>
<feColorMatrix type="matrix" values="0 0 0 0 0 0 0 0 0 0 0 0 0 0 0 0 0 0 0.25 0"/>
<feBlend mode="normal" in2="BackgroundImageFix" result="effect1_dropShadow_1302_3893"/>
<feBlend mode="normal" in="SourceGraphic" in2="effect1_dropShadow_1302_3893" result="shape"/>
</filter>
<filter id="filter2_d_1302_3893" x="129.925" y="194.078" width="224.487" height="51.0852" filterUnits="userSpaceOnUse" color-interpolation-filters="sRGB">
<feFlood flood-opacity="0" result="BackgroundImageFix"/>
<feColorMatrix in="SourceAlpha" type="matrix" values="0 0 0 0 0 0 0 0 0 0 0 0 0 0 0 0 0 0 127 0" result="hardAlpha"/>
<feOffset dx="3" dy="3"/>
<feGaussianBlur stdDeviation="3"/>
<feComposite in2="hardAlpha" operator="out"/>
<feColorMatrix type="matrix" values="0 0 0 0 0 0 0 0 0 0 0 0 0 0 0 0 0 0 0.25 0"/>
<feBlend mode="normal" in2="BackgroundImageFix" result="effect1_dropShadow_1302_3893"/>
<feBlend mode="normal" in="SourceGraphic" in2="effect1_dropShadow_1302_3893" result="shape"/>
</filter>
</defs>
</svg>
