<svg width="480" height="350" viewBox="0 0 480 350" fill="none" xmlns="http://www.w3.org/2000/svg">
<rect width="480" height="350" fill="#8433F4"/>
<g filter="url(#filter0_d_1302_3881)">
<path d="M196.443 197V162.091H209.807C212.33 162.091 214.426 162.489 216.097 163.284C217.778 164.068 219.034 165.142 219.864 166.506C220.705 167.869 221.125 169.415 221.125 171.142C221.125 172.562 220.852 173.778 220.307 174.79C219.761 175.79 219.028 176.602 218.108 177.227C217.188 177.852 216.159 178.301 215.023 178.574V178.915C216.261 178.983 217.449 179.364 218.585 180.057C219.733 180.739 220.67 181.705 221.398 182.955C222.125 184.205 222.489 185.716 222.489 187.489C222.489 189.295 222.051 190.92 221.176 192.364C220.301 193.795 218.983 194.926 217.222 195.756C215.46 196.585 213.244 197 210.574 197H196.443ZM202.767 191.716H209.568C211.864 191.716 213.517 191.278 214.528 190.403C215.551 189.517 216.062 188.381 216.062 186.994C216.062 185.96 215.807 185.028 215.295 184.199C214.784 183.358 214.057 182.699 213.114 182.222C212.17 181.733 211.045 181.489 209.739 181.489H202.767V191.716ZM202.767 176.938H209.023C210.114 176.938 211.097 176.739 211.972 176.341C212.847 175.932 213.534 175.358 214.034 174.619C214.545 173.869 214.801 172.983 214.801 171.96C214.801 170.608 214.324 169.494 213.369 168.619C212.426 167.744 211.023 167.307 209.159 167.307H202.767V176.938ZM227.717 197V170.818H233.888V197H227.717ZM230.82 167.102C229.842 167.102 229.001 166.778 228.297 166.131C227.592 165.472 227.24 164.682 227.24 163.761C227.24 162.83 227.592 162.04 228.297 161.392C229.001 160.733 229.842 160.403 230.82 160.403C231.808 160.403 232.649 160.733 233.342 161.392C234.047 162.04 234.399 162.83 234.399 163.761C234.399 164.682 234.047 165.472 233.342 166.131C232.649 166.778 231.808 167.102 230.82 167.102ZM253.307 170.818V175.591H238.256V170.818H253.307ZM241.972 164.545H248.142V189.125C248.142 189.955 248.267 190.591 248.517 191.034C248.778 191.466 249.119 191.761 249.54 191.92C249.96 192.08 250.426 192.159 250.938 192.159C251.324 192.159 251.676 192.131 251.994 192.074C252.324 192.017 252.574 191.966 252.744 191.92L253.784 196.744C253.455 196.858 252.983 196.983 252.369 197.119C251.767 197.256 251.028 197.335 250.153 197.358C248.608 197.403 247.216 197.17 245.977 196.659C244.739 196.136 243.756 195.33 243.028 194.239C242.313 193.148 241.96 191.784 241.972 190.148V164.545ZM278.786 177.739L273.161 178.352C273.001 177.784 272.723 177.25 272.325 176.75C271.939 176.25 271.416 175.847 270.757 175.54C270.098 175.233 269.291 175.08 268.337 175.08C267.053 175.08 265.973 175.358 265.098 175.915C264.234 176.472 263.808 177.193 263.82 178.08C263.808 178.841 264.087 179.46 264.655 179.938C265.234 180.415 266.189 180.807 267.518 181.114L271.984 182.068C274.462 182.602 276.303 183.449 277.507 184.608C278.723 185.767 279.337 187.284 279.348 189.159C279.337 190.807 278.854 192.261 277.899 193.523C276.956 194.773 275.643 195.75 273.962 196.455C272.28 197.159 270.348 197.511 268.166 197.511C264.962 197.511 262.382 196.841 260.428 195.5C258.473 194.148 257.308 192.267 256.933 189.858L262.95 189.278C263.223 190.46 263.803 191.352 264.689 191.955C265.575 192.557 266.729 192.858 268.149 192.858C269.615 192.858 270.791 192.557 271.678 191.955C272.575 191.352 273.024 190.608 273.024 189.722C273.024 188.972 272.734 188.352 272.155 187.864C271.587 187.375 270.7 187 269.496 186.739L265.03 185.801C262.518 185.278 260.661 184.398 259.456 183.159C258.251 181.909 257.655 180.33 257.666 178.42C257.655 176.807 258.092 175.409 258.979 174.227C259.876 173.034 261.121 172.114 262.712 171.466C264.314 170.807 266.161 170.477 268.251 170.477C271.32 170.477 273.734 171.131 275.496 172.438C277.268 173.744 278.365 175.511 278.786 177.739ZM297.51 170.818V175.591H282.459V170.818H297.51ZM286.175 164.545H292.345V189.125C292.345 189.955 292.47 190.591 292.72 191.034C292.982 191.466 293.322 191.761 293.743 191.92C294.163 192.08 294.629 192.159 295.141 192.159C295.527 192.159 295.879 192.131 296.197 192.074C296.527 192.017 296.777 191.966 296.947 191.92L297.987 196.744C297.658 196.858 297.186 196.983 296.572 197.119C295.97 197.256 295.232 197.335 294.357 197.358C292.811 197.403 291.419 197.17 290.18 196.659C288.942 196.136 287.959 195.33 287.232 194.239C286.516 193.148 286.163 191.784 286.175 190.148V164.545ZM302.67 197V170.818H308.653V175.182H308.926C309.403 173.67 310.222 172.506 311.381 171.688C312.551 170.858 313.886 170.443 315.386 170.443C315.727 170.443 316.108 170.46 316.528 170.494C316.96 170.517 317.318 170.557 317.602 170.614V176.29C317.341 176.199 316.926 176.119 316.358 176.051C315.801 175.972 315.261 175.932 314.739 175.932C313.614 175.932 312.602 176.176 311.705 176.665C310.818 177.142 310.119 177.807 309.608 178.659C309.097 179.511 308.841 180.494 308.841 181.608V197H302.67ZM328.767 197.528C327.108 197.528 325.614 197.233 324.284 196.642C322.966 196.04 321.92 195.153 321.148 193.983C320.386 192.812 320.006 191.369 320.006 189.653C320.006 188.176 320.278 186.955 320.824 185.989C321.369 185.023 322.114 184.25 323.057 183.67C324 183.091 325.063 182.653 326.244 182.358C327.438 182.051 328.67 181.83 329.943 181.693C331.477 181.534 332.722 181.392 333.676 181.267C334.631 181.131 335.324 180.926 335.756 180.653C336.199 180.369 336.42 179.932 336.42 179.341V179.239C336.42 177.955 336.04 176.96 335.278 176.256C334.517 175.551 333.42 175.199 331.989 175.199C330.477 175.199 329.278 175.528 328.392 176.188C327.517 176.847 326.926 177.625 326.619 178.523L320.858 177.705C321.313 176.114 322.063 174.784 323.108 173.716C324.153 172.636 325.432 171.83 326.943 171.295C328.455 170.75 330.125 170.477 331.955 170.477C333.216 170.477 334.472 170.625 335.722 170.92C336.972 171.216 338.114 171.705 339.148 172.386C340.182 173.057 341.011 173.972 341.636 175.131C342.273 176.29 342.591 177.739 342.591 179.477V197H336.659V193.403H336.455C336.08 194.131 335.551 194.812 334.869 195.449C334.199 196.074 333.352 196.58 332.33 196.966C331.318 197.341 330.131 197.528 328.767 197.528ZM330.369 192.994C331.608 192.994 332.682 192.75 333.591 192.261C334.5 191.761 335.199 191.102 335.688 190.284C336.188 189.466 336.438 188.574 336.438 187.608V184.523C336.244 184.682 335.915 184.83 335.449 184.966C334.994 185.102 334.483 185.222 333.915 185.324C333.347 185.426 332.784 185.517 332.227 185.597C331.67 185.676 331.188 185.744 330.778 185.801C329.858 185.926 329.034 186.131 328.307 186.415C327.58 186.699 327.006 187.097 326.585 187.608C326.165 188.108 325.955 188.756 325.955 189.551C325.955 190.688 326.369 191.545 327.199 192.125C328.028 192.705 329.085 192.994 330.369 192.994ZM348.795 206.818V170.818H354.864V175.148H355.222C355.54 174.511 355.989 173.835 356.568 173.119C357.148 172.392 357.932 171.773 358.92 171.261C359.909 170.739 361.17 170.477 362.705 170.477C364.727 170.477 366.551 170.994 368.176 172.028C369.813 173.051 371.108 174.568 372.062 176.58C373.028 178.58 373.511 181.034 373.511 183.943C373.511 186.818 373.04 189.261 372.097 191.273C371.153 193.284 369.869 194.818 368.244 195.875C366.619 196.932 364.778 197.46 362.722 197.46C361.222 197.46 359.977 197.21 358.989 196.71C358 196.21 357.205 195.608 356.602 194.903C356.011 194.187 355.551 193.511 355.222 192.875H354.966V206.818H348.795ZM354.847 183.909C354.847 185.602 355.085 187.085 355.562 188.358C356.051 189.631 356.75 190.625 357.659 191.341C358.58 192.045 359.693 192.398 361 192.398C362.364 192.398 363.506 192.034 364.426 191.307C365.347 190.568 366.04 189.562 366.506 188.29C366.983 187.006 367.222 185.545 367.222 183.909C367.222 182.284 366.989 180.841 366.523 179.58C366.057 178.318 365.364 177.33 364.443 176.614C363.523 175.898 362.375 175.54 361 175.54C359.682 175.54 358.562 175.886 357.642 176.58C356.722 177.273 356.023 178.244 355.545 179.494C355.08 180.744 354.847 182.216 354.847 183.909Z" fill="#F7F3FD"/>
<path d="M151.351 142L180.411 147.386L175.025 176.446L145.965 171.06L151.351 142Z" fill="#F7F3FD"/>
<path d="M108 144.445H137.555V174.001H108V144.445Z" fill="#F7F3FD"/>
<path d="M108 182.445H137.555V212H108V182.445Z" fill="#F7F3FD"/>
<path d="M146 182.445H175.555V212H146V182.445Z" fill="#F7F3FD"/>
</g>
<defs>
<filter id="filter0_d_1302_3881" x="104" y="138" width="277.511" height="82.0002" filterUnits="userSpaceOnUse" color-interpolation-filters="sRGB">
<feFlood flood-opacity="0" result="BackgroundImageFix"/>
<feColorMatrix in="SourceAlpha" type="matrix" values="0 0 0 0 0 0 0 0 0 0 0 0 0 0 0 0 0 0 127 0" result="hardAlpha"/>
<feOffset dx="2" dy="2"/>
<feGaussianBlur stdDeviation="3"/>
<feComposite in2="hardAlpha" operator="out"/>
<feColorMatrix type="matrix" values="0 0 0 0 0 0 0 0 0 0 0 0 0 0 0 0 0 0 0.25 0"/>
<feBlend mode="normal" in2="BackgroundImageFix" result="effect1_dropShadow_1302_3881"/>
<feBlend mode="normal" in="SourceGraphic" in2="effect1_dropShadow_1302_3881" result="shape"/>
</filter>
</defs>
</svg>
