<svg width="480" height="350" viewBox="0 0 480 350" fill="none" xmlns="http://www.w3.org/2000/svg">
<rect width="480" height="350" fill="url(#paint0_linear_702_3818)"/>
<g clip-path="url(#clip0_702_3818)">
<g filter="url(#filter0_i_702_3818)">
<path d="M109.574 199.211C115.883 199.251 121.95 196.711 126.448 192.145C130.945 187.58 133.507 181.361 133.572 174.851L125.164 174.779C125.139 177.921 124.212 180.985 122.5 183.583C120.787 186.181 118.367 188.197 115.544 189.375C112.722 190.554 109.624 190.842 106.643 190.203C103.662 189.565 100.931 188.029 98.7959 185.789C96.6608 183.549 95.2173 180.705 94.648 177.619C94.0787 174.532 94.4091 171.341 95.5974 168.448C96.7857 165.555 98.7786 163.091 101.324 161.366C103.869 159.642 106.853 158.736 109.898 158.762C110.572 158.768 111.704 158.777 111.704 158.777C113.475 155.993 115.638 153.497 118.124 151.373C115.493 150.425 112.731 149.923 109.945 149.886C106.806 149.861 103.694 150.474 100.785 151.691C97.8765 152.907 95.2285 154.702 92.9922 156.975C90.7559 159.247 88.9752 161.952 87.7517 164.934C86.5283 167.917 85.8861 171.119 85.8618 174.357C85.8375 177.596 86.4315 180.808 87.61 183.81C88.7885 186.812 90.5284 189.544 92.7303 191.852C94.9322 194.16 97.553 195.998 100.443 197.26C103.333 198.523 106.436 199.186 109.574 199.211Z" fill="white"/>
</g>
<g filter="url(#filter1_i_702_3818)">
<path d="M135.985 150.282C129.676 150.241 123.609 152.782 119.111 157.348C114.614 161.913 112.052 168.132 111.987 174.642L120.371 174.713C120.401 171.573 121.332 168.513 123.046 165.919C124.76 163.325 127.181 161.313 130.002 160.138C132.823 158.962 135.919 158.676 138.898 159.315C141.877 159.954 144.606 161.49 146.739 163.729C148.873 165.967 150.316 168.808 150.886 171.892C151.456 174.977 151.128 178.166 149.942 181.058C148.757 183.95 146.768 186.415 144.226 188.141C141.684 189.867 138.704 190.777 135.661 190.756C134.987 190.75 133.855 190.74 133.855 190.74C132.085 193.525 129.921 196.021 127.435 198.144C130.069 199.023 132.824 199.458 135.592 199.432C141.908 199.486 147.985 196.948 152.488 192.378C156.991 187.807 159.55 181.577 159.602 175.06C159.654 168.542 157.195 162.27 152.766 157.623C148.337 152.977 142.301 150.336 135.985 150.282" fill="white"/>
</g>
</g>
<g filter="url(#filter2_i_702_3818)">
<path d="M195.701 186.259C194.605 186.843 193.422 187.105 192.152 187.105C189.699 187.105 188.487 185.851 188.487 183.284V170.303H197.231V163.389H188.487V153.588H180.638V163.389H175.617V170.303H180.638V183.284C180.638 186.668 181.475 189.322 183.149 191.219C184.822 193.144 187.304 194.077 190.623 194.077C192.902 194.077 195.24 193.611 197.606 192.648L195.701 186.259Z" fill="white"/>
<path d="M214.487 194.456C218.584 194.456 221.787 192.94 224.096 189.906V193.611H231.974V163.389H224.096V167.036C221.787 164.06 218.584 162.543 214.487 162.543C210.303 162.543 206.782 164.06 203.954 167.094C201.126 170.128 199.712 173.92 199.712 178.5C199.712 183.051 201.126 186.843 203.954 189.877C206.782 192.94 210.303 194.456 214.487 194.456ZM215.843 187.397C213.39 187.397 211.37 186.58 209.812 184.888C208.225 183.226 207.446 181.067 207.446 178.442C207.446 175.875 208.225 173.745 209.812 172.082C211.37 170.449 213.39 169.603 215.843 169.603C218.238 169.603 220.258 170.449 221.903 172.112C223.519 173.803 224.356 175.904 224.356 178.442C224.356 181.038 223.519 183.167 221.903 184.859C220.258 186.551 218.238 187.397 215.843 187.397Z" fill="white"/>
<path d="M257.05 162.543C253.01 162.543 249.807 164.119 247.412 167.211V163.389H239.621V193.611H247.412V178.675C247.412 176.02 248.047 173.891 249.374 172.287C250.702 170.711 252.433 169.895 254.626 169.895C256.704 169.895 258.291 170.566 259.387 171.907C260.455 173.249 261.003 175.087 261.003 177.421V193.611H268.823V175.933C268.823 171.791 267.813 168.524 265.793 166.132C263.773 163.74 260.859 162.543 257.05 162.543Z" fill="white"/>
<path d="M298.603 163.389V166.919C296.295 164.002 293.149 162.543 289.167 162.543C284.839 162.543 281.318 164.002 278.548 166.861C275.778 169.72 274.393 173.395 274.393 177.887C274.393 182.263 275.778 185.909 278.577 188.856C281.376 191.802 284.896 193.26 289.167 193.26C293.12 193.26 296.266 191.802 298.603 188.885V192.531C298.545 194.894 297.882 196.819 296.612 198.278C295.342 199.766 293.524 200.495 291.158 200.495C287.58 200.495 284.983 199.182 283.367 196.586L276.557 199.036C279.443 204.345 284.233 207 290.985 207C295.602 207 299.325 205.658 302.153 202.974C304.98 200.291 306.423 196.79 306.423 192.531V163.389H298.603ZM290.523 186.143C288.042 186.143 286.022 185.384 284.464 183.838C282.905 182.321 282.126 180.338 282.126 177.887C282.126 175.466 282.905 173.483 284.464 171.966C286.022 170.449 288.042 169.661 290.523 169.661C292.918 169.661 294.881 170.449 296.439 171.966C297.997 173.483 298.776 175.466 298.776 177.887C298.776 180.338 297.997 182.321 296.439 183.838C294.881 185.384 292.918 186.143 290.523 186.143Z" fill="white"/>
<path d="M314.07 193.611H321.861V150H314.07V193.611Z" fill="white"/>
<path d="M343.965 194.456C347.572 194.456 350.631 193.611 353.142 191.86C355.652 190.139 357.413 188.126 358.394 185.851L351.353 183.751C349.968 186.434 347.544 187.747 344.081 187.747C341.484 187.747 339.435 187.135 337.992 185.88C336.52 184.626 335.655 182.963 335.395 180.892H358.624C358.74 180.25 358.798 179.317 358.798 178.092C358.798 173.628 357.413 169.924 354.642 166.977C351.872 164.031 348.121 162.543 343.359 162.543C338.714 162.543 334.933 164.06 332.048 167.094C329.162 170.128 327.719 173.92 327.719 178.5C327.719 183.284 329.22 187.164 332.221 190.081C335.222 192.998 339.146 194.456 343.965 194.456ZM335.395 175.933C335.626 174.124 336.434 172.549 337.877 171.207C339.32 169.895 341.109 169.224 343.302 169.224C345.553 169.224 347.37 169.865 348.784 171.149C350.17 172.432 350.978 174.037 351.18 175.933H335.395Z" fill="white"/>
<path d="M387.25 150V167.036C384.942 164.06 381.738 162.543 377.641 162.543C373.457 162.543 369.936 164.06 367.108 167.094C364.28 170.128 362.866 173.92 362.866 178.5C362.866 183.051 364.28 186.843 367.108 189.877C369.936 192.94 373.457 194.456 377.641 194.456C381.71 194.456 384.913 192.94 387.25 189.906V193.611H395.128V150H387.25ZM378.997 187.397C376.544 187.397 374.524 186.58 372.966 184.888C371.379 183.226 370.6 181.067 370.6 178.442C370.6 175.875 371.379 173.745 372.966 172.082C374.524 170.449 376.544 169.603 378.997 169.603C381.392 169.603 383.412 170.449 385.057 172.112C386.673 173.803 387.51 175.904 387.51 178.442C387.51 181.038 386.673 183.167 385.057 184.859C383.412 186.551 381.392 187.397 378.997 187.397Z" fill="white"/>
</g>
<defs>
<filter id="filter0_i_702_3818" x="85.8608" y="149.886" width="48.7109" height="50.3254" filterUnits="userSpaceOnUse" color-interpolation-filters="sRGB">
<feFlood flood-opacity="0" result="BackgroundImageFix"/>
<feBlend mode="normal" in="SourceGraphic" in2="BackgroundImageFix" result="shape"/>
<feColorMatrix in="SourceAlpha" type="matrix" values="0 0 0 0 0 0 0 0 0 0 0 0 0 0 0 0 0 0 127 0" result="hardAlpha"/>
<feOffset dx="1" dy="1"/>
<feGaussianBlur stdDeviation="1"/>
<feComposite in2="hardAlpha" operator="arithmetic" k2="-1" k3="1"/>
<feColorMatrix type="matrix" values="0 0 0 0 0.2 0 0 0 0 0.2 0 0 0 0 0.2 0 0 0 0.3 0"/>
<feBlend mode="normal" in2="shape" result="effect1_innerShadow_702_3818"/>
</filter>
<filter id="filter1_i_702_3818" x="111.987" y="150.282" width="48.6152" height="50.1514" filterUnits="userSpaceOnUse" color-interpolation-filters="sRGB">
<feFlood flood-opacity="0" result="BackgroundImageFix"/>
<feBlend mode="normal" in="SourceGraphic" in2="BackgroundImageFix" result="shape"/>
<feColorMatrix in="SourceAlpha" type="matrix" values="0 0 0 0 0 0 0 0 0 0 0 0 0 0 0 0 0 0 127 0" result="hardAlpha"/>
<feOffset dx="1" dy="1"/>
<feGaussianBlur stdDeviation="1"/>
<feComposite in2="hardAlpha" operator="arithmetic" k2="-1" k3="1"/>
<feColorMatrix type="matrix" values="0 0 0 0 0.2 0 0 0 0 0.2 0 0 0 0 0.2 0 0 0 0.3 0"/>
<feBlend mode="normal" in2="shape" result="effect1_innerShadow_702_3818"/>
</filter>
<filter id="filter2_i_702_3818" x="175.617" y="150" width="220.511" height="58" filterUnits="userSpaceOnUse" color-interpolation-filters="sRGB">
<feFlood flood-opacity="0" result="BackgroundImageFix"/>
<feBlend mode="normal" in="SourceGraphic" in2="BackgroundImageFix" result="shape"/>
<feColorMatrix in="SourceAlpha" type="matrix" values="0 0 0 0 0 0 0 0 0 0 0 0 0 0 0 0 0 0 127 0" result="hardAlpha"/>
<feOffset dx="1" dy="1"/>
<feGaussianBlur stdDeviation="1"/>
<feComposite in2="hardAlpha" operator="arithmetic" k2="-1" k3="1"/>
<feColorMatrix type="matrix" values="0 0 0 0 0.2 0 0 0 0 0.2 0 0 0 0 0.2 0 0 0 0.3 0"/>
<feBlend mode="normal" in2="shape" result="effect1_innerShadow_702_3818"/>
</filter>
<linearGradient id="paint0_linear_702_3818" x1="240" y1="0" x2="339" y2="350" gradientUnits="userSpaceOnUse">
<stop stop-color="#5444C4"/>
<stop offset="1" stop-color="#3A29B6"/>
</linearGradient>
<clipPath id="clip0_702_3818">
<rect width="270.447" height="49.7234" fill="white" transform="translate(85.8726 150)"/>
</clipPath>
</defs>
</svg>
